<?xml version="1.0" standalone="no"?>
<svg xmlns="http://www.w3.org/2000/svg" xmlns:xlink="http://www.w3.org/1999/xlink" style="isolation:isolate" viewBox="-125.609 -125.609 753.654 753.654" width="502.436" height="502.436">
	<defs>
		<clipPath id="_clipPath_VlpwUgmUTouxcKSyynco4KOCYsfGjQ3J">
			<rect width="502.436" height="502.436"/>
		</clipPath>
	</defs>
	<g clip-path="url(#_clipPath_VlpwUgmUTouxcKSyynco4KOCYsfGjQ3J)">
		<g id="Group">
			<g id="Group">
				<path d=" M 402.481 300.41 C 402.514 300.359 402.549 300.312 402.583 300.262 C 402.86 299.793 402.459 300.432 402.481 300.41 Z " fill="rgb(0,0,0)"/>
				<path d=" M 402.581 199.504 C 402.552 199.449 402.519 199.399 402.487 199.344 C 402.551 199.457 402.63 199.598 402.688 199.703 C 402.651 199.637 402.616 199.571 402.581 199.504 Z " fill="rgb(0,0,0)"/>
				<path d=" M 406.079 55.139 C 406.471 54.674 405.678 55.6 406.079 55.139 L 406.079 55.139 L 406.079 55.139 Z " fill="rgb(0,0,0)"/>
				<g id="Group">
					<path d=" M 292.844 383.368 C 293.102 383.25 293.04 383.279 292.844 383.368 L 292.844 383.368 L 292.844 383.368 Z " fill="rgb(0,0,0)"/>
					<path d=" M 465.85 19.072 C 464.676 16.668 463.502 14.263 462.329 11.857 C 458.339 13.92 454.464 16.209 450.651 18.58 C 448.483 19.93 446.339 21.32 444.213 22.736 L 441.41 24.632 C 440.551 23.329 439.689 22.027 438.832 20.722 L 441.6 19.013 C 443.893 17.62 446.204 16.253 448.539 14.935 C 452.525 12.681 456.576 10.515 460.728 8.587 C 459.931 6.952 459.132 5.317 458.333 3.683 C 457.86 2.712 457.388 1.744 456.913 0.775 C 456.546 0.023 456.683 -0.161 455.872 0.132 C 448.601 2.757 441.481 5.782 434.517 9.13 C 417.712 17.208 401.372 27.075 387.259 39.321 C 372.613 52.028 359.605 66.702 350.685 84.042 C 341.742 101.431 337.042 120.56 336.773 140.105 C 336.64 149.957 337.919 159.626 339.714 169.289 C 341.532 179.08 344.835 188.412 348.23 197.744 C 350.548 204.476 354.191 210.697 356.736 217.348 C 358.392 221.676 359.597 226.03 360.632 230.534 C 361.585 234.682 361.765 239.305 361.275 243.528 C 360.795 247.671 359.388 251.262 357.296 254.834 C 355.099 258.582 351.747 261.821 348.544 264.711 C 345.155 267.77 341.517 270.534 337.732 273.082 C 321.591 283.938 303.212 291.352 284.832 297.45 C 284.239 297.647 283.644 297.829 283.051 298.022 L 245.275 375.927 C 245.793 375.755 246.313 375.593 246.831 375.419 C 255.932 372.39 264.983 369.204 273.934 365.749 C 277.775 364.267 281.592 362.735 285.406 361.181 C 285.719 361.052 286.456 360.733 286.456 360.733 C 286.456 360.733 286.951 361.948 287.173 362.448 C 289.111 366.844 291.046 371.235 292.985 375.631 C 293.785 377.444 294.586 379.26 295.384 381.071 C 295.522 381.384 295.658 381.7 295.798 382.011 C 295.804 382.028 293.068 383.272 292.503 383.528 C 292.632 383.468 292.753 383.414 292.849 383.369 C 292.749 383.416 292.614 383.477 292.405 383.573 C 277.39 390.457 262.041 396.621 246.515 402.246 C 240.929 404.269 235.31 406.205 229.678 408.098 L 184.654 500.95 C 191.488 498.485 198.282 495.911 205.045 493.302 C 223.064 486.343 240.869 478.82 258.402 470.714 C 294.035 454.241 328.759 435.386 360.699 412.48 C 391.224 390.464 420.023 364.261 439 331.366 C 448.527 314.849 455.473 296.584 458.074 277.638 C 460.734 258.28 458.91 238.448 452.886 219.866 C 448.915 207.616 443.243 195.764 436.13 185.014 C 432.972 180.241 429.646 175.645 426.183 171.094 C 424.216 168.514 422.052 166.082 419.919 163.639 C 416.714 159.965 414.079 155.78 411.46 151.686 C 407.019 144.747 403.753 136.821 402.14 128.741 C 400.148 118.768 400.853 108.782 403.478 99.001 C 408.513 80.243 420.361 63.562 433.412 49.483 C 441.433 40.827 450.232 32.858 459.586 25.665 C 461.451 24.229 463.342 22.825 465.262 21.466 C 466.758 20.401 466.6 20.608 465.85 19.072 Z  M 403.092 299.358 C 403.092 299.358 402.891 299.739 402.582 300.261 C 402.51 300.37 402.486 300.405 402.48 300.409 C 394.095 313.134 384.226 324.339 372.72 334.352 C 361.876 343.79 350.075 351.926 337.929 359.573 C 334.339 353.46 330.749 347.344 327.159 341.229 C 342.382 332.512 357.19 322.928 370.038 310.893 C 376.368 304.961 381.985 298.508 387.065 291.485 L 388.262 289.919 L 403.092 299.358 Z  M 402.489 199.344 C 402.368 199.127 402.309 199.02 402.583 199.504 C 402.837 199.963 402.798 199.895 402.688 199.703 C 411.368 215.455 417.327 232.875 417.252 251.023 C 412.006 250.923 406.758 250.822 401.512 250.722 C 402.172 237.253 398.662 223.868 393.274 211.613 C 390.292 204.828 386.508 198.447 382.831 192.025 C 379.653 186.482 376.89 180.83 374.204 175.037 C 376.243 174.117 378.282 173.197 380.321 172.279 C 381.632 171.689 385.311 170.013 385.311 170.013 L 385.643 170.708 C 388.057 175.368 390.539 179.886 393.303 184.347 C 396.393 189.333 399.608 194.237 402.489 199.344 Z  M 406.079 55.139 C 396.952 65.653 388.78 76.782 383.069 89.559 C 377.727 101.518 374.692 114.5 374.903 127.62 C 371.501 127.571 368.096 127.522 364.692 127.474 C 365.198 110.003 370.749 93.074 379.676 78.107 C 384.211 70.5 389.58 63.5 395.371 56.814 C 396.766 55.203 398.262 53.677 399.726 52.13 C 400.253 51.575 401.869 49.778 401.869 49.778 C 401.869 49.778 405.18 52.985 406.654 54.397 C 406.674 54.415 406.689 54.432 406.709 54.45 C 406.489 54.67 406.28 54.901 406.079 55.139 Z " fill="rgb(255,255,255)"/>
				</g>
				<path d=" M 291.195 210.11 C 291.195 139.76 233.962 82.526 163.612 82.526 C 93.263 82.526 36.03 139.76 36.03 210.11 C 36.03 230.725 40.951 250.21 49.67 267.463 L 163.612 502.436 L 277.572 267.426 C 286.28 250.182 291.195 230.709 291.195 210.11 Z  M 163.612 280.711 C 124.681 280.711 93.008 249.04 93.008 210.109 C 93.008 171.177 124.682 139.504 163.612 139.504 C 202.542 139.504 234.216 171.178 234.216 210.109 C 234.215 249.04 202.542 280.711 163.612 280.711 Z " fill="rgb(255,255,255)"/>
			</g>
		</g>
	</g>
</svg>